<svg width="628" height="576" viewBox="0 0 628 576" fill="none" xmlns="http://www.w3.org/2000/svg">
<path d="M234.178 81.8274C258.724 80.0262 283.352 84.0763 306.031 93.6387C354.289 114.076 376.911 148.774 395.717 194.74C427.171 196.938 456.134 207.959 481.685 229.363C548.67 285.475 573.597 455.969 516.642 524.313C481.668 566.276 378.055 570.73 322.872 574.333C240.4 577.345 67.8426 585.082 19.4964 502.064C-5.19045 459.673 -3.93004 390.244 9.41989 343.66C21.3852 301.91 39.1243 279.682 76.4278 258.847C92.2975 168.801 137.32 95.4874 234.178 81.8274Z" fill="#0A0A0A"/>
<path d="M286.845 278.152C256.611 278.152 247.806 312.32 247.805 354.471C247.805 396.623 256.611 430.796 286.845 430.796C317.079 430.794 325.881 396.622 325.881 354.471C325.88 312.321 317.079 278.154 286.845 278.152Z" fill="white"/>
<path d="M422.629 278.152C392.394 278.152 383.59 312.32 383.589 354.471C383.589 396.623 392.394 430.796 422.629 430.796C452.863 430.794 461.665 396.622 461.665 354.471C461.664 312.321 452.863 278.154 422.629 278.152Z" fill="white"/>
<path d="M544.097 4.72659C546.156 -1.57553 555.154 -1.57553 557.213 4.72659L573.818 55.5565C574.491 57.6168 576.11 59.2388 578.182 59.928L623.301 74.9354C629.566 77.0196 629.566 85.8011 623.301 87.8852L578.182 102.893C576.11 103.582 574.491 105.204 573.818 107.264L557.213 158.094C555.154 164.396 546.156 164.396 544.097 158.094L527.475 107.213C526.811 105.182 525.227 103.574 523.192 102.87L479.861 87.8576C473.704 85.7244 473.704 77.0962 479.861 74.9631L523.192 59.9511C525.227 59.2462 526.811 57.639 527.475 55.6072L544.097 4.72659Z" fill="#FD3F73"/>
</svg>
